Sundays and Cybele (original French title: Les Dimanches de Ville D'Avray) stars Hardy Kruger as a former bomber pilot. Emotionally shattered by a tragic wartime incident, Kruger goes into semi-seclusion in a small Parisian suburb. He is drawn out of his shell by 12-year-old orphan girl Patricia Gozzi. The nuns in charge of Patricia bless the relationship, assuming that Kruger is the girl's father. A warm, chaste friendship develops between the older man and the bright-eyed girl, culminating in their mutual decision to spend Christmas together in a nearby woods. Unfortunately, nurse Nicole Courcel, suspecting that Kruger is a pedophile, calls the police--a move that can only result in disaster for all concerned. Based on a novel by Bernard Eschasseriaux, the exquisitely photographed Sundays and Cybele won the 1962 Best Foreign Film Academy Award. 

   General
      Complete name : Les.Dimanches.De.Ville.D'Avray.1962.DVDRip.avi
      Format : AVI
      Format/Info : Audio Video Interleave
      File size : 1.31 GiB
      Duration : 1h 46mn
      Overall bit rate : 1 765 Kbps
      Movie name : Les Dimanches de Ville d'Avray
      Director : Serge Bourguignon
      Writing application : VirtualDubModRus 1.5.10.2 (build 2542/release)
      Writing library : VirtualDubMod build 2542/release
      Comment : DVDRip.by.Polinka
   Video #0
      ID : 0
      Format : MPEG-4 Visual
      Format profile : AdvancedSimple@L5
      Format settings, BVOP : Yes
      Format settings, QPel : No
      Format settings, GMC : No warppoints
      Format settings, Matrix : Default (MPEG)
      Muxing mode : Packed bitstream
      Codec ID : XVID
      Codec ID/Hint : XviD
      Duration : 1h 46mn
      Bit rate : 1 563 Kbps
      Width : 720 pixels
      Height : 304 pixels
      Display aspect ratio : 2.35:1
      Frame rate : 25.000 fps
      Resolution : 24 bits
      Colorimetry : 4:2:0
      Scan type : Progressive
      Bits/(Pixel*Frame) : 0.286
      Stream size : 1.16 GiB (89%)
      Writing library : XviD 1.1.2 (UTC 2006-11-01)
   Audio #1
      ID : 1
      Format : AC-3
      Format/Info : Audio Coding 3
      Codec ID : 2000
      Duration : 1h 46mn
      Bit rate mode : Constant
      Bit rate : 192 Kbps
      Channel(s) : 2 channels
      Channel positions : L R
      Sampling rate : 48.0 KHz
      Stream size : 146 MiB (11%)
      Alignment : Aligned on interleaves
      Interleave, duration : 40 ms (1.00 video frame)
      Interleave, preload duration : 512 ms

IMDB: tt0055910

French audio; multilanguage subpack (English, Francais, Deutsch, Italiano, Espanol, Arabic, Nederlands, Greek, Portugues, Turkish)

Posted at KG by MinimalBoy